# xmcd
#
# Track frame offsets: 
#        150
#        16978
#        33810
#        49881
#        64013
#        81492
#        96281
#        110455
#        127888
#        144426
#        158493
#        169418
#        186685
#        202128
#
# Disc length: 2859 seconds
#
# Revision: 0
# Processed by: cddbd v1.5.2PL0 Copyright (c) Steve Scherf et al.
# Submitted via: ExactAudioCopyFreeDBPlugin 1.0
#
DISCID=c40b290e
DTITLE=The Shires - Brave (Deluxe Edition)
DYEAR=2015
DGENRE=Country
TTITLE0=Tonight
TTITLE1=Nashville Grey Skies
TTITLE2=Brave
TTITLE3=Friday Night
TTITLE4=I Just Wanna Love You
TTITLE5=All Over Again
TTITLE6=Jekyll and Hyde
TTITLE7=State Lines
TTITLE8=Black and White
TTITLE9=Made in England
TTITLE10=How Many Love Songs
TTITLE11=Only Midnight
TTITLE12=Islands In The Stream
TTITLE13=Drink You Away
EXTD=
EXTT0=
EXTT1=
EXTT2=
EXTT3=
EXTT4=
EXTT5=
EXTT6=
EXTT7=
EXTT8=
EXTT9=
EXTT10=
EXTT11=
EXTT12=
EXTT13=
PLAYORDER=
